<svg xmlns="http://www.w3.org/2000/svg" xmlns:xlink="http://www.w3.org/1999/xlink" width="24" height="24" viewBox="0 0 24 24">
  <defs>
    <clipPath id="clip-path">
      <rect width="24" height="24" fill="none"/>
    </clipPath>
  </defs>
  <g id="ic_event_available_24px" clip-path="url(#clip-path)">
    <path id="Path_1792" data-name="Path 1792" d="M0,0H24V24H0Z" fill="none"/>
    <path id="Path_1793" data-name="Path 1793" d="M16.53,11.06,15.47,10l-4.88,4.88L8.47,12.76,7.41,13.82,10.59,17l5.94-5.94ZM19,3H18V1H16V3H8V1H6V3H5A1.991,1.991,0,0,0,3.01,5L3,19a2,2,0,0,0,2,2H19a2.006,2.006,0,0,0,2-2V5A2.006,2.006,0,0,0,19,3Zm0,16H5V8H19Z"/>
  </g>
</svg>
