<svg id="Group_102" data-name="Group 102" xmlns="http://www.w3.org/2000/svg" xmlns:xlink="http://www.w3.org/1999/xlink" width="76.411" height="62.448" viewBox="0 0 76.411 62.448">
  <defs>
    <clipPath id="clip-path">
      <rect id="Rectangle_125" data-name="Rectangle 125" width="76.411" height="62.448" fill="none"/>
    </clipPath>
  </defs>
  <g id="Group_55" data-name="Group 55" clip-path="url(#clip-path)">
    <path id="Path_35" data-name="Path 35" d="M76.411,2.588c0,2.916-5.674,5.515-14.515,7.2a130.769,130.769,0,0,1-23.69,1.976,130.768,130.768,0,0,1-23.69-1.976C5.674,8.1,0,5.5,0,2.588A3.482,3.482,0,0,1,1.541,0C3.8,1.842,8.4,3.445,14.515,4.609a130.768,130.768,0,0,0,23.69,1.976A130.769,130.769,0,0,0,61.9,4.609C68.016,3.445,72.616,1.842,74.87,0a3.482,3.482,0,0,1,1.541,2.588" transform="translate(0)" fill="#d9b88f"/>
    <path id="Path_36" data-name="Path 36" d="M146.558,52.529v-1.4h-6.541v.313c0,3.919-.12,49.554-3.548,49.554H150.1c-3.2,0-3.516-40.722-3.546-48.467" transform="translate(-105.08 -39.37)" fill="#d9b88f"/>
    <path id="Path_37" data-name="Path 37" d="M124.972,84.439q-2.332-3.3-9.232-6.316l-.462-.2c.069,2.307.152,4.639.251,6.93a18.518,18.518,0,0,1,3.08,2.01,6.361,6.361,0,0,1,2.332,5.055,7.707,7.707,0,0,1-2.7,6.123,9.224,9.224,0,0,1-1.743,1.191,10.38,10.38,0,0,1-4.938,1.141,18.925,18.925,0,0,1-4.816-.55,10.738,10.738,0,0,1-2.521-.982q-2.77-1.532-2.769-5.417v-.292H95.38v.292A11.567,11.567,0,0,0,97.2,99.72a10,10,0,0,0,5.345,4.131,20.088,20.088,0,0,0,3.381.842,33.437,33.437,0,0,0,5.389.4,24.61,24.61,0,0,0,6-.651,13.577,13.577,0,0,0,2.87-1.051,12.285,12.285,0,0,0,5.2-5,13.72,13.72,0,0,0,1.87-6.849,12.246,12.246,0,0,0-2.284-7.1m-23.325-6.486a27.8,27.8,0,0,0,6.268,3.56c.08-2.3.149-4.616.2-6.866v0q-.776-.411-1.32-.75a8.37,8.37,0,0,1-2.82-2.82,6.977,6.977,0,0,1-1.019-3.643,7.218,7.218,0,0,1,2.162-5.127,6.884,6.884,0,0,1,3.227-1.84,12.981,12.981,0,0,1,3.455-.419,15.923,15.923,0,0,1,3.146.3c.3.062.6.131.886.212a5.313,5.313,0,0,1,2.772,1.628,3.575,3.575,0,0,1,.922,2.284v.292H125.6v-.292a8.367,8.367,0,0,0-2.988-6.366q-2.422-2.2-7.7-2.622-1.239-.1-2.631-.1a28.474,28.474,0,0,0-3.912.251,13.7,13.7,0,0,0-7.871,3.395,12.716,12.716,0,0,0-2.551,14.456,13.577,13.577,0,0,0,3.692,4.471" transform="translate(-73.442 -42.642)" fill="#fff"/>
    <path id="Path_38" data-name="Path 38" d="M124.972,84.439q-2.332-3.3-9.232-6.316l-.462-.2c.069,2.307.152,4.639.251,6.93a18.518,18.518,0,0,1,3.08,2.01,6.361,6.361,0,0,1,2.332,5.055,7.707,7.707,0,0,1-2.7,6.123,9.224,9.224,0,0,1-1.743,1.191,10.38,10.38,0,0,1-4.938,1.141,18.925,18.925,0,0,1-4.816-.55,10.738,10.738,0,0,1-2.521-.982q-2.77-1.532-2.769-5.417v-.292H95.38v.292A11.567,11.567,0,0,0,97.2,99.72a10,10,0,0,0,5.345,4.131,20.088,20.088,0,0,0,3.381.842,33.437,33.437,0,0,0,5.389.4,24.61,24.61,0,0,0,6-.651,13.577,13.577,0,0,0,2.87-1.051,12.285,12.285,0,0,0,5.2-5,13.72,13.72,0,0,0,1.87-6.849,12.246,12.246,0,0,0-2.284-7.1m-23.325-6.486a27.8,27.8,0,0,0,6.268,3.56c.08-2.3.149-4.616.2-6.866v0q-.776-.411-1.32-.75a8.37,8.37,0,0,1-2.82-2.82,6.977,6.977,0,0,1-1.019-3.643,7.218,7.218,0,0,1,2.162-5.127,6.884,6.884,0,0,1,3.227-1.84,12.981,12.981,0,0,1,3.455-.419,15.923,15.923,0,0,1,3.146.3c.3.062.6.131.886.212a5.313,5.313,0,0,1,2.772,1.628,3.575,3.575,0,0,1,.922,2.284v.292H125.6v-.292a8.367,8.367,0,0,0-2.988-6.366q-2.422-2.2-7.7-2.622-1.239-.1-2.631-.1a28.474,28.474,0,0,0-3.912.251,13.7,13.7,0,0,0-7.871,3.395,12.716,12.716,0,0,0-2.551,14.456,13.577,13.577,0,0,0,3.692,4.471" transform="translate(-73.442 -42.642)" fill="#fff"/>
  </g>
</svg>
